<?xml version="1.0" encoding="utf-8"?>
<!-- Generator: Adobe Illustrator 24.3.0, SVG Export Plug-In . SVG Version: 6.00 Build 0)  -->
<svg version="1.1" id="Capa_1" xmlns="http://www.w3.org/2000/svg" xmlns:xlink="http://www.w3.org/1999/xlink" x="0px" y="0px"
	 viewBox="0 0 519.03 625.49" style="enable-background:new 0 0 519.03 625.49;" xml:space="preserve">
<style type="text/css">
	.st0{fill:#205599;}
</style>
<g>
	<path class="st0" d="M259.64,329.27c-40.11,0.86-74.73-31.22-74.6-70.34c0.14-39.19,34.77-70.21,74.66-70.1
		c37.49,0.09,74.33,28.45,74.29,70.52C333.93,300.33,297.81,329.96,259.64,329.27"/>
	<path class="st0" d="M327.61,556.8c-23.11,23.09-45.8,45.74-68.76,68.69c-0.66-0.58-1.76-1.45-2.73-2.42
		C197.21,564.18,138.28,505.3,79.39,446.36c-16.64-16.64-31.49-34.72-43.43-55.09c-15.36-26.2-26.17-54.13-31.59-84.03
		c-1.74-9.64-2.94-19.43-3.58-29.2c-0.71-10.72-1.03-21.54-0.58-32.28c0.73-17.65,3.5-35.06,8.02-52.17
		c5.09-19.2,12.2-37.6,21.47-55.18c8.56-16.18,18.46-31.49,30.53-45.26c7.64-8.71,15.5-17.3,23.98-25.2
		c14.24-13.26,29.94-24.67,46.93-34.27C152.52,21.57,175.1,12.56,199,6.86c13.14-3.13,26.41-5.61,39.94-6.13
		c12.06-0.46,24.17-1.06,36.22-0.51c17.77,0.83,35.26,3.89,52.46,8.6c28.25,7.72,54.5,19.78,78.58,36.5
		c10.61,7.36,20.62,15.45,30.18,24.17c15.85,14.48,29.33,30.91,41.03,48.8c18.1,27.69,30.2,57.9,36.7,90.3
		c2.67,13.35,4.01,26.85,4.67,40.48c1.44,31.14-2.99,61.4-12.59,90.92c-9.91,30.5-25.02,58.29-45.55,82.98
		c-6.35,7.65-13.09,14.98-20.04,22.08c-14.52,14.8-29.28,29.37-43.95,44.03c-0.99,0.98-2.03,1.92-2.67,2.51
		c-26.61-26.59-52.97-52.91-79.52-79.42c0.62-0.29,1.58-0.83,2.64-1.22c13.6-5.15,26.26-12.01,38.01-20.58
		c18.63-13.6,33.71-30.42,45.24-50.38c7.76-13.42,13.41-27.7,17.01-42.75c4.12-17.3,5.32-34.78,3.83-52.52
		c-1.82-21.68-7.89-42.07-17.95-61.27c-5.84-11.15-12.97-21.44-21.24-30.99c-14.95-17.28-32.83-30.67-53.42-40.45
		c-14.97-7.11-30.73-11.65-47.16-13.95c-10.26-1.43-20.56-1.82-30.83-1.24c-20.17,1.13-39.52,5.79-57.98,14.17
		c-11.49,5.22-22.29,11.57-32.23,19.32c-16.61,12.94-30.41,28.39-41.09,46.59c-10.92,18.63-17.97,38.64-20.78,60.02
		c-4.94,37.7,2.21,73.03,21.65,105.78c6.81,11.46,15.08,21.77,24.53,31.2c60.05,59.94,120.05,119.92,180.06,179.9
		C325.79,554.87,326.82,555.98,327.61,556.8"/>
</g>
</svg>
