<?xml version="1.0" encoding="utf-8"?>
<!-- Generator: Adobe Illustrator 24.3.0, SVG Export Plug-In . SVG Version: 6.00 Build 0)  -->
<svg version="1.1" id="Capa_1" xmlns="http://www.w3.org/2000/svg" xmlns:xlink="http://www.w3.org/1999/xlink" x="0px" y="0px"
	 viewBox="0 0 936 300" style="enable-background:new 0 0 936 300;" xml:space="preserve">
<style type="text/css">
	.st0{fill:#FBC52D;}
	.st1{fill:#1D5598;}
	.st2{fill:#1E2546;}
</style>
<g>
	<path class="st0" d="M165.05,156.66c-16.16,0.35-30.1-12.57-30.05-28.33c0.06-15.79,14.01-28.28,30.07-28.24
		c15.1,0.04,29.94,11.46,29.93,28.4C194.98,145,180.43,156.94,165.05,156.66"/>
	<path class="st1" d="M192.43,248.31c-9.31,9.3-18.45,18.43-27.7,27.67c-0.27-0.24-0.71-0.58-1.1-0.98
		c-23.73-23.72-47.47-47.44-71.19-71.18c-6.7-6.7-12.68-13.98-17.49-22.19c-6.19-10.56-10.54-21.8-12.72-33.85
		c-0.7-3.88-1.18-7.83-1.44-11.76c-0.29-4.32-0.41-8.68-0.24-13c0.29-7.11,1.41-14.12,3.23-21.01c2.05-7.73,4.91-15.15,8.65-22.23
		c3.45-6.52,7.43-12.68,12.3-18.23c3.08-3.51,6.24-6.97,9.66-10.15c5.73-5.34,12.06-9.94,18.9-13.8c8.61-4.87,17.71-8.5,27.34-10.8
		c5.29-1.26,10.64-2.26,16.09-2.47c4.86-0.19,9.74-0.43,14.59-0.21c7.16,0.33,14.21,1.57,21.13,3.46
		c11.38,3.11,21.95,7.97,31.65,14.7c4.27,2.96,8.31,6.22,12.16,9.74c6.39,5.83,11.81,12.45,16.53,19.66
		c7.29,11.15,12.17,23.32,14.78,36.37c1.07,5.38,1.62,10.82,1.88,16.31c0.58,12.54-1.2,24.73-5.07,36.62
		c-3.99,12.29-10.08,23.48-18.35,33.43c-2.56,3.08-5.27,6.03-8.07,8.89c-5.85,5.96-11.79,11.83-17.71,17.74
		c-0.4,0.4-0.82,0.77-1.07,1.01c-10.72-10.71-21.34-21.31-32.03-31.99c0.25-0.12,0.64-0.33,1.06-0.49
		c5.48-2.07,10.58-4.84,15.31-8.29c7.51-5.48,13.58-12.25,18.22-20.29c3.13-5.41,5.4-11.15,6.85-17.22
		c1.66-6.97,2.14-14.01,1.54-21.15c-0.73-8.73-3.18-16.94-7.23-24.68c-2.35-4.49-5.22-8.63-8.56-12.48
		c-6.02-6.96-13.22-12.35-21.52-16.29c-6.03-2.87-12.38-4.69-19-5.62c-4.13-0.58-8.28-0.73-12.42-0.5
		c-8.12,0.46-15.92,2.33-23.35,5.71c-4.63,2.1-8.98,4.66-12.98,7.78c-6.69,5.21-12.25,11.43-16.55,18.77
		c-4.4,7.51-7.24,15.56-8.37,24.17c-1.99,15.19,0.89,29.42,8.72,42.61c2.74,4.62,6.08,8.77,9.88,12.57
		c24.19,24.14,48.36,48.3,72.53,72.46C191.7,247.53,192.12,247.98,192.43,248.31"/>
	<path class="st2" d="M352.55,135.36c0.09-4.12-1.23-7.21-3.95-9.28c-2.72-2.06-6.58-3.09-11.58-3.09h-10v24.87h10
		c5,0,8.84-1.07,11.52-3.22C351.21,142.49,352.55,139.39,352.55,135.36 M339.91,106.14c9.91,0,17.63,2.48,23.16,7.44
		c5.53,4.96,8.29,12.04,8.29,21.25c0,9.21-2.99,16.45-8.95,21.72c-5.97,5.26-13.86,7.89-23.69,7.89h-11.71v29.35h-18.68v-87.65
		H339.91z"/>
	<path class="st2" d="M417.69,126.67c2.45,0,4.78,0.31,6.98,0.92l-2.63,18.42c-2.19-0.61-4.43-0.92-6.71-0.92
		c-5.53,0-10.26,2.42-14.21,7.24v41.45h-18.42v-65.14h16.71l0.79,8.29C405.1,130.09,410.93,126.67,417.69,126.67"/>
	<path class="st2" d="M461.65,179.57c4.65,0,8.29-1.53,10.92-4.61c2.63-3.07,3.95-7.5,3.95-13.29c0-5.97-1.36-10.62-4.08-13.95
		c-2.72-3.33-6.54-5-11.45-5c-4.65,0-8.31,1.58-10.99,4.74c-2.67,3.16-4.01,7.63-4.01,13.42c0,5.88,1.38,10.46,4.14,13.75
		C452.89,177.93,456.73,179.57,461.65,179.57 M485.73,185.76c-6.23,6.58-14.52,9.87-24.87,9.87c-10.35,0-18.51-2.9-24.48-8.69
		c-5.97-5.79-8.95-13.91-8.95-24.35c0-10.61,3.11-19.26,9.34-25.93c6.23-6.66,14.47-10,24.74-10c10.35,0,18.53,2.92,24.55,8.75
		c6.01,5.84,9.01,13.97,9.01,24.41C495.07,170.54,491.96,179.18,485.73,185.76"/>
	<path class="st2" d="M588.25,126.67c7.55,0,13.27,2.37,17.17,7.11c3.9,4.74,5.86,11.19,5.86,19.35v40.66h-18.43v-37.51
		c0-3.86-0.88-6.93-2.63-9.21c-1.76-2.28-4.39-3.42-7.9-3.42c-5.09,0-9.7,1.97-13.82,5.92c0.09,0.71,0.13,1.85,0.13,3.43v40.79
		h-18.43v-37.51c0-3.86-0.9-6.93-2.7-9.21c-1.8-2.28-4.41-3.42-7.83-3.42c-5.09,0-9.65,1.93-13.69,5.79v44.35h-18.42v-65.14h16.71
		l0.66,7.11c5.35-6.05,12.24-9.08,20.66-9.08c9.48,0,16.1,3.77,19.88,11.32C571.09,130.44,578.68,126.67,588.25,126.67"/>
	<path class="st2" d="M655.5,141.54c-7.28,0-11.71,3.95-13.29,11.84h25.27C666.86,145.49,662.87,141.54,655.5,141.54 M685.11,156.94
		c0,3.77-0.18,6.71-0.53,8.82h-42.51c0.7,5.09,2.52,8.67,5.46,10.73c2.94,2.06,6.78,3.09,11.51,3.09c7.02,0,12.94-1.84,17.77-5.53
		l7.63,13.29c-6.41,5.53-15.92,8.29-28.56,8.29c-10.27,0-18.32-2.78-24.15-8.36c-5.84-5.57-8.75-13.93-8.75-25.07
		c0-10.44,3-18.97,9.01-25.6c6.01-6.62,14.01-9.94,24.02-9.94c9.13,0,16.26,2.61,21.39,7.83
		C682.54,139.72,685.11,147.2,685.11,156.94"/>
	<path class="st2" d="M719.85,195.63c-12.28,0-21.45-2.63-27.51-7.9l8.16-12.77c5.35,4.04,11.8,6.06,19.35,6.06
		c6.93,0,10.39-1.89,10.39-5.66c0-1.93-0.99-3.4-2.96-4.41c-1.97-1.01-5.86-1.99-11.65-2.96c-7.11-1.23-12.33-3.4-15.66-6.51
		c-3.34-3.11-5-7.61-5-13.49c0-6.58,2.39-11.78,7.17-15.59c4.78-3.81,11.34-5.72,19.67-5.72c10.97,0,19.26,2.28,24.88,6.84
		l-7.37,12.9c-4.91-3.42-10.83-5.13-17.76-5.13c-6.41,0-9.61,1.71-9.61,5.13c0,1.84,0.94,3.18,2.83,4.01
		c1.89,0.84,5.94,1.78,12.17,2.83c6.84,1.23,11.97,3.46,15.4,6.71c3.42,3.24,5.13,7.9,5.13,13.95c0,7.02-2.41,12.39-7.24,16.12
		C735.42,193.77,728.62,195.63,719.85,195.63"/>
	<path class="st2" d="M781.57,195.63c-12.29,0-21.45-2.63-27.51-7.9l8.16-12.77c5.35,4.04,11.8,6.06,19.35,6.06
		c6.93,0,10.39-1.89,10.39-5.66c0-1.93-0.99-3.4-2.96-4.41c-1.98-1.01-5.86-1.99-11.65-2.96c-7.11-1.23-12.33-3.4-15.66-6.51
		c-3.34-3.11-5-7.61-5-13.49c0-6.58,2.39-11.78,7.17-15.59c4.78-3.81,11.34-5.72,19.67-5.72c10.97,0,19.26,2.28,24.88,6.84
		l-7.37,12.9c-4.91-3.42-10.83-5.13-17.76-5.13c-6.41,0-9.61,1.71-9.61,5.13c0,1.84,0.94,3.18,2.83,4.01
		c1.89,0.84,5.94,1.78,12.17,2.83c6.84,1.23,11.97,3.46,15.4,6.71c3.42,3.24,5.13,7.9,5.13,13.95c0,7.02-2.41,12.39-7.24,16.12
		C797.14,193.77,790.34,195.63,781.57,195.63"/>
	<path class="st2" d="M843.82,182.08c5.79,0,9.95-2.46,12.5-7.37v-6.58c-2.1-0.35-4.87-0.53-8.29-0.53
		c-8.16,0-12.24,2.55-12.24,7.64C835.79,179.79,838.46,182.08,843.82,182.08 M875.53,193.79h-16.58c-0.53-2.02-0.92-4.12-1.18-6.32
		c-4.65,5.44-11.28,8.16-19.88,8.16c-6.05,0-10.99-1.64-14.8-4.94c-3.82-3.29-5.72-7.96-5.72-14.01c0-6.93,2.48-12.17,7.43-15.73
		c4.95-3.55,12.08-5.33,21.39-5.33c4.21,0,7.59,0.18,10.13,0.53v-3.03c0-6.84-3.95-10.27-11.85-10.27c-6.58,0-12.72,1.93-18.42,5.79
		l-6.84-13.29c7.63-5.79,16.98-8.68,28.03-8.68c18.34,0,27.51,8.51,27.51,25.53v31.19C874.74,188.22,875,191.68,875.53,193.79"/>
</g>
</svg>
